<?xml version="1.0" encoding="UTF-8"?>
<svg width="212px" height="65px" viewBox="0 0 212 65" version="1.1" xmlns="http://www.w3.org/2000/svg" xmlns:xlink="http://www.w3.org/1999/xlink">
    <!-- Generator: Sketch 52.6 (67491) - http://www.bohemiancoding.com/sketch -->
    <title>Group 2</title>
    <desc>Created with Sketch.</desc>
    <g id="Page-1" stroke="none" stroke-width="1" fill="none" fill-rule="evenodd">
        <g id="Logo" transform="translate(-208.000000, -210.000000)" fill="#000000">
            <g id="Group-2" transform="translate(206.000000, 201.000000)">
                <text id="Pregnancy" font-family="Raleway-Bold, Raleway" font-size="39" font-weight="bold" letter-spacing="2">
                    <tspan x="0" y="37">Pregnanc</tspan>
                    <tspan x="193.957" y="37">y</tspan>
                </text>
                <text id="Care" font-family="Raleway-Bold, Raleway" font-size="36" font-weight="bold" letter-spacing="3">
                    <tspan x="88" y="71">Car</tspan>
                    <tspan x="156.292" y="71">e</tspan>
                </text>
                <g id="pregnant" transform="translate(186.000000, 50.000000)">
                    <path d="M18.0140387,0 C16.5405067,0 15.1012258,0.424585404 13.8505356,1.22801759 C13.6106729,1.36093875 11.7922728,2.43853425 12.0745042,4.4016982 C12.1775719,5.11869942 12.5476831,5.63111157 12.9056442,6.12672068 C13.4107699,6.82605992 13.892852,7.49458464 13.7613988,8.84693398 C13.7542763,8.84306875 13.7476251,8.8385593 13.7404501,8.83480144 C13.3665157,8.63933862 12.9407332,8.60498096 12.5415033,8.73790213 C12.1760531,8.85960337 11.8733443,9.10842791 11.678626,9.44357606 C11.5456017,9.31156752 11.3935665,9.19813359 11.2250865,9.1074616 C10.9315951,8.9494701 10.6111323,8.87205801 10.2886793,8.87699693 C10.2644312,8.60782621 10.2781002,8.43093799 10.2936546,8.23273729 C10.3132941,7.98198013 10.3354997,7.69777794 10.2764767,7.25064532 C10.1616778,6.3819336 9.67634863,5.62300531 8.90978307,5.11359946 C7.98526427,4.49913435 6.74263935,4.31886405 5.66697562,4.64289964 C3.71078537,5.23218703 2.57986943,7.34389414 3.14595586,9.35021988 C3.3130218,9.94224515 3.61997273,10.4883707 4.03365732,10.9294371 C4.25079066,11.1609754 4.36826054,11.4666512 4.35605792,11.7680322 C4.32133543,12.6244503 4.43676281,13.4750169 4.69914536,14.2962721 C5.26104205,16.0547396 6.48219455,17.5086588 8.13766611,18.3899862 C9.17378915,18.9415875 10.2909837,19.2217097 11.4054025,19.2216561 C12.0714143,19.2216561 12.7365357,19.1215894 13.3824367,18.9196845 C13.7401359,18.8078611 14.0905554,18.6664579 14.4240064,18.4992328 C15.3362179,18.0417929 16.0593149,17.2609616 16.4600113,16.3003431 C16.6833768,15.7649543 16.7988042,15.192631 16.8045651,14.6181067 C17.0521265,14.6647579 17.3138282,14.6512296 17.5682502,14.5671607 C18.3845166,14.2975068 18.8376371,13.3838617 18.578554,12.5306647 L18.1768102,11.2078414 C17.9098189,10.3289298 17.233228,9.65933137 16.366999,9.41657309 C15.8139531,9.26174893 15.2413726,9.29755604 14.7261915,9.50397037 C15.1058868,7.36912554 14.3593797,6.33469183 13.7476774,5.48777574 C13.4407789,5.06286824 13.1757777,4.69588558 13.1109415,4.24504879 C12.9251788,2.95287902 14.296167,2.20066121 14.352938,2.17016879 C14.3664499,2.16302884 14.3796999,2.15529837 14.3925834,2.14697738 C15.4797689,1.44473921 16.732135,1.07356921 18.0143529,1.07356921 C21.8402676,1.07356921 24.9528789,4.35236276 24.9528789,8.38246149 C24.9528789,12.804989 21.5653159,16.5212521 18.7236238,18.8600418 C16.0626667,21.0499662 13.3664633,22.4768287 12.5927229,22.8672712 C11.8488343,22.4918602 9.33017125,21.1599107 6.77563356,19.1145568 C6.54765926,18.9320855 6.21860744,18.9735294 6.04049106,19.2071614 C5.86242706,19.4408471 5.90291043,19.7781963 6.13083236,19.9607213 C9.25967885,22.4659309 12.2474882,23.8911829 12.3731804,23.9506109 C12.4428349,23.9835727 12.5177265,24 12.5926181,24 C12.6675097,24 12.7424537,23.9835191 12.8120558,23.9506109 C12.9459704,23.887264 16.1283409,22.3688705 19.3620356,19.7113599 C21.2733433,18.1407322 22.7992471,16.4983291 23.8973783,14.8299967 C25.2925622,12.7103444 26,10.5410883 26,8.38256886 C26.0000524,3.76039118 22.4175093,0 18.0140387,0 Z M9.59883841,10.7433152 C9.83613489,10.5295462 10.0923376,10.2983837 10.2315941,9.95518295 C10.4052589,9.9384336 10.5801282,9.97289861 10.7381862,10.0579875 C10.9219064,10.1569268 11.0636244,10.3137372 11.1463194,10.5054422 L10.9278767,10.9447907 L9.4128139,10.9140298 C9.47560765,10.8542797 9.53793005,10.7981264 9.59883841,10.7433152 Z M14.2014788,11.4538744 L14.3759292,11.1029969 C14.4455312,10.9973471 14.527912,10.8993741 14.6223907,10.8117621 C15.0220396,10.441129 15.5708434,10.3067583 16.0905808,10.4523489 C16.6103706,10.5979931 17.0163042,10.9998166 17.1765094,11.5271528 L17.5782532,12.8498687 C17.6674424,13.1435192 17.5187065,13.455476 17.2467399,13.5453427 C16.9884948,13.630861 16.7089866,13.4985304 16.6041907,13.2443375 L16.2980254,12.2363162 C16.2120309,11.9532414 15.9184348,11.7951425 15.6422785,11.883345 C15.3661222,11.9714939 15.2119397,12.2723917 15.2979341,12.5555203 L15.6121124,13.589954 C16.0864434,15.1589712 15.3930936,16.8181237 13.9635539,17.5348565 C13.679856,17.6770649 13.381494,17.7975314 13.0767427,17.8927666 C10.0573532,18.836582 6.67665092,17.0364021 5.69436605,13.962144 C5.47110521,13.2634489 5.37290815,12.5402741 5.40239345,11.8126971 C5.42643209,11.2202424 5.20275228,10.6271971 4.78864871,10.1855403 C4.4879824,9.86483307 4.2737295,9.48346314 4.15201751,9.05195253 C3.74571734,7.61188381 4.55774159,6.09606721 5.96219527,5.67298496 C6.22347802,5.59428446 6.49790608,5.55584684 6.772596,5.55584684 C7.329465,5.55584684 7.88753855,5.71383835 8.33992587,6.01446779 C8.69809639,6.25250189 9.14472282,6.68513987 9.23846828,7.39467904 C9.2824082,7.72714299 9.26716801,7.92158582 9.24951873,8.14678948 C9.22815105,8.41993281 9.20390292,8.72947376 9.27800897,9.25332057 C9.32063959,9.55475527 9.26287353,9.61649167 8.90726923,9.93682308 C8.80949114,10.0249182 8.69867248,10.1247165 8.58397831,10.2406736 C8.58387357,10.2408346 8.58020754,10.2444851 8.58005043,10.2446462 L8.57366107,10.2510345 C8.2871875,10.5379209 8.19705569,10.9691094 8.3439585,11.3495667 C8.48981387,11.7271788 8.8405476,11.9763791 9.23757796,11.9844317 L11.0351341,12.0209367 C11.3574824,12.0280766 11.6568394,11.8428674 11.8024329,11.5500221 L12.5603047,10.0258846 C12.6237793,9.89817072 12.7320318,9.80341877 12.865056,9.75912961 C12.9981851,9.71489413 13.1400078,9.7262751 13.264705,9.79150096 C13.3893498,9.85656576 13.481786,9.96753023 13.5249927,10.1038872 C13.5681994,10.2402978 13.5569918,10.3857273 13.4934649,10.5134948 L13.4667553,10.5671786 C13.3794515,10.7085818 13.3054502,10.8576618 13.2455369,11.0120565 L12.7356454,12.0375787 C12.5065189,12.4984007 12.0952434,12.8520161 11.6072957,13.0078065 C11.4140962,13.0694356 11.2145074,13.0987469 11.0143949,13.0945059 L8.74942072,13.047801 C8.45891453,13.0421642 8.22109433,13.277353 8.21528107,13.5737414 C8.2094678,13.8701836 8.43917037,14.1153039 8.72836727,14.1212628 L10.9933415,14.1679678 C11.3063151,14.1742488 11.6176653,14.1289933 11.9186982,14.0329529 C12.4463961,13.8644931 12.9165899,13.5457722 13.2736606,13.1247836 L13.6427244,14.3398097 C13.7287189,14.6228845 14.0221055,14.7809834 14.2984713,14.6927809 C14.5746276,14.604632 14.7288101,14.3036805 14.6428157,14.0206056 L14.1763404,12.4848723 C14.07233,12.1421011 14.0856848,11.7797889 14.2014788,11.4538744 Z" id="Shape" fill-rule="nonzero"></path>
                    <path d="M5.83641795,18.1390405 L5.82227115,18.126354 C5.61973029,17.9442004 5.30805692,17.9609842 5.12616942,18.1638213 C4.94428191,18.3666585 4.96104119,18.6787877 5.16358205,18.8609413 L5.17772885,18.8736279 C5.27187659,18.9582873 5.3895859,19 5.50690088,19 C5.64196098,19 5.77647887,18.9447122 5.87383058,18.8361605 C6.05571809,18.6332247 6.03895881,18.3211941 5.83641795,18.1390405 Z" id="Path"></path>
                    <path d="M12.7438212,1.2245693 C11.4297588,0.423419936 9.91573163,0 8.36538708,0 C3.7527006,3.77062238e-16 0,3.7171696 0,8.28622043 C0,11.1716742 1.34154726,14.0457186 3.98739182,16.8285943 C4.09557581,16.9423695 4.24320416,17 4.39132625,17 C4.52403267,17 4.65717797,16.9536727 4.76256409,16.8599037 C4.98557013,16.66154 5.00010804,16.3258395 4.79498637,16.1100699 C2.34126165,13.5293787 1.09720067,10.8970005 1.09720067,8.28622043 C1.09720067,4.30239019 4.35775191,1.06133585 8.36538708,1.06133585 C9.7083607,1.06133585 11.0201738,1.42829272 12.1588487,2.12245943 C12.4150999,2.27874113 12.7539155,2.20444762 12.9154783,1.9564665 C13.0769862,1.70853845 13.0001273,1.380851 12.7438212,1.2245693 Z" id="Path"></path>
                    <path d="M18.4993509,2 C18.223587,2 18,2.22385 18,2.5 C18,2.77615 18.223537,3 18.499301,3 L18.5020471,3 C18.7778111,3 19,2.77615 19,2.5 C19,2.22385 18.7751148,2 18.4993509,2 Z" id="Path"></path>
                    <path d="M22.0634962,5.13126198 C21.463233,4.17137885 20.6319986,3.44679469 19.65958,3.03567554 C19.4093894,2.92990579 19.1286227,3.06728366 19.0324292,3.34251992 C18.9362842,3.61775619 19.061161,3.92662947 19.3113516,4.03245261 C20.9370321,4.71971569 22.0293286,6.50146339 22.0293286,8.46607902 C22.0293286,8.76096358 22.2466134,9 22.5146643,9 C22.7827152,9 23,8.76096358 23,8.46607902 C23,7.26406272 22.676184,6.1109002 22.0634962,5.13126198 Z" id="Path"></path>
                </g>
            </g>
        </g>
    </g>
</svg>