<?xml version="1.0" encoding="iso-8859-1"?>
<!-- Generator: Adobe Illustrator 19.0.0, SVG Export Plug-In . SVG Version: 6.00 Build 0)  -->
<svg version="1.1" id="Capa_1" xmlns="http://www.w3.org/2000/svg" xmlns:xlink="http://www.w3.org/1999/xlink" x="0px" y="0px"
	 viewBox="0 0 511.998 511.998" style="enable-background:new 0 0 511.998 511.998;" xml:space="preserve">
<g>
	<g>
		<path d="M359.513,32.468c-28.136,0-55.618,7.909-79.499,22.875c-4.58,2.476-39.301,22.549-33.912,59.118
			c1.968,13.356,9.035,22.901,15.87,32.133c9.645,13.027,18.85,25.48,16.34,50.671c-0.136-0.072-0.263-0.156-0.4-0.226
			c-7.14-3.641-15.27-4.281-22.893-1.805c-6.978,2.267-12.758,6.902-16.476,13.145c-2.54-2.459-5.443-4.572-8.66-6.261
			c-5.604-2.943-11.723-4.385-17.88-4.293c-0.463-5.014-0.202-8.309,0.095-12.001c0.375-4.671,0.799-9.965-0.328-18.294
			c-2.192-16.182-11.459-30.319-26.096-39.808c-17.653-11.446-41.38-14.804-61.919-8.768
			c-37.352,10.977-58.946,50.313-48.137,87.686c3.19,11.028,9.051,21.201,16.95,29.417c4.146,4.313,6.389,10.007,6.156,15.621
			c-0.663,15.953,1.541,31.797,6.551,47.095c10.729,32.756,34.046,59.839,65.656,76.256c19.784,10.275,41.116,15.493,62.395,15.492
			c12.717,0,25.417-1.864,37.75-5.625c6.83-2.083,13.521-4.717,19.888-7.832c17.418-8.521,31.225-23.066,38.876-40.96
			c4.265-9.973,6.469-20.634,6.579-31.336c4.727,0.869,9.724,0.617,14.582-0.949c15.586-5.023,24.238-22.042,19.291-37.935
			l-7.671-24.641c-5.098-16.372-18.017-28.845-34.557-33.367c-10.56-2.884-21.493-2.217-31.33,1.628
			c7.25-39.767-7.004-59.036-18.684-74.812c-5.86-7.915-10.92-14.751-12.158-23.149c-3.547-24.07,22.631-38.082,23.715-38.65
			c0.258-0.133,0.511-0.277,0.757-0.432c20.759-13.081,44.672-19.995,69.155-19.995c73.053,0,132.486,61.076,132.486,136.147
			c0,82.381-64.683,151.606-118.943,195.172c-50.809,40.793-102.291,67.372-117.065,74.645
			c-14.204-6.993-62.296-31.804-111.073-69.904c-4.353-3.399-10.636-2.627-14.037,1.725c-3.4,4.353-2.627,10.637,1.725,14.037
			c59.743,46.666,116.793,73.215,119.193,74.322c1.33,0.614,2.76,0.92,4.19,0.92c1.43,0,2.861-0.307,4.19-0.92
			c2.557-1.18,63.322-29.464,125.067-78.967c36.495-29.257,65.631-59.851,86.599-90.928c26.64-39.484,40.148-79.892,40.148-120.1
			C512,102.515,443.594,32.468,359.513,32.468z M198.831,232.59c4.531-3.982,9.423-8.288,12.082-14.681
			c3.316-0.312,6.655,0.33,9.673,1.915c3.508,1.843,6.214,4.764,7.793,8.335l-4.171,8.184l-28.929-0.573
			C196.478,234.657,197.668,233.611,198.831,232.59z M286.715,245.826l3.331-6.536c1.329-1.968,2.902-3.793,4.706-5.425
			c7.631-6.904,18.11-9.407,28.034-6.695c9.925,2.713,17.676,10.198,20.735,20.021l7.671,24.639
			c1.703,5.47-1.137,11.281-6.33,12.955c-4.931,1.593-10.268-0.872-12.269-5.607l-5.846-18.777
			c-1.642-5.273-7.248-8.218-12.521-6.575c-5.273,1.642-8.217,7.247-6.575,12.521l5.999,19.269
			c9.057,29.227-4.182,60.133-31.478,73.484c-5.417,2.649-11.114,4.893-16.933,6.667c-57.653,17.581-122.205-15.952-140.961-73.218
			c-4.263-13.015-6.138-26.486-5.575-40.039c0.459-11.036-3.812-22.083-11.719-30.31c-5.741-5.974-9.832-13.078-12.156-21.116
			c-7.758-26.825,7.747-55.061,34.564-62.942c4.989-1.466,10.229-2.182,15.474-2.182c10.633,0,21.289,2.943,29.927,8.543
			c6.839,4.434,15.367,12.493,17.157,25.71c0.839,6.193,0.548,9.815,0.211,14.01c-0.408,5.088-0.871,10.854,0.544,20.612
			c0.814,5.615-0.289,6.765-7.079,12.732c-1.867,1.641-3.983,3.5-6.173,5.66c-0.002,0.003-0.072,0.071-0.075,0.074l-0.122,0.119
			c-5.47,5.344-7.191,13.376-4.386,20.463c2.785,7.034,9.482,11.676,17.063,11.826l34.323,0.68
			c6.155,0.133,11.871-3.317,14.651-8.772l14.471-28.391c1.212-2.379,3.279-4.144,5.819-4.969c2.542-0.824,5.25-0.612,7.631,0.603
			c2.38,1.212,4.145,3.279,4.97,5.819c0.825,2.541,0.611,5.25-0.602,7.63l-0.51,1c-1.667,2.634-3.08,5.411-4.224,8.287
			l-9.736,19.103c-4.375,8.584-12.228,15.171-21.545,18.073c-3.689,1.148-7.5,1.694-11.321,1.615l-43.248-0.87
			c-5.547-0.105-10.088,4.276-10.199,9.797c-0.111,5.522,4.275,10.088,9.797,10.199l43.248,0.87
			c5.976,0.117,11.921-0.726,17.669-2.515c10.076-3.138,19.054-9.075,25.872-16.917l7.047,22.633
			c1.642,5.273,7.244,8.218,12.521,6.575c5.273-1.642,8.217-7.248,6.575-12.521l-8.907-28.607
			C284.249,258.646,284.504,251.897,286.715,245.826z"/>
	</g>
</g>
<g>
	<g>
		<path d="M117.023,365.203l-0.287-0.257c-4.109-3.69-10.432-3.35-14.122,0.759c-3.69,4.109-3.35,10.432,0.759,14.122l0.287,0.257
			c1.91,1.715,4.298,2.56,6.678,2.56c2.74,0,5.469-1.12,7.444-3.319C121.472,375.214,121.132,368.893,117.023,365.203z"/>
	</g>
</g>
<g>
	<g>
		<path d="M232.297,55.544c-23.953-15.097-51.551-23.076-79.811-23.076C68.405,32.468,0,102.515,0,188.615
			c0,54.374,24.454,108.533,72.683,160.974c1.972,2.144,4.663,3.23,7.363,3.23c2.419,0,4.846-0.873,6.767-2.64
			c4.065-3.738,4.33-10.064,0.591-14.13C42.677,287.418,20,237.813,20,188.615c0-75.072,59.434-136.147,132.486-136.147
			c24.48,0,48.392,6.915,69.148,19.996c4.671,2.945,10.847,1.545,13.792-3.128C238.37,64.664,236.969,58.489,232.297,55.544z"/>
	</g>
</g>
<g>
	<g>
		<path d="M359.514,80.002c-5.523,0-10.001,4.477-10.001,10s4.477,10,10,10h0.055c5.523,0,9.973-4.477,9.973-10
			S365.037,80.002,359.514,80.002z"/>
	</g>
</g>
<g>
	<g>
		<path d="M446.361,126.157c-12.368-17.978-29.495-31.549-49.531-39.249c-5.155-1.981-10.94,0.592-12.922,5.747
			c-1.981,5.155,0.592,10.94,5.747,12.922c33.496,12.872,56.002,46.243,56.002,83.039c0,5.523,4.477,10,10,10s10-4.477,10-10
			C465.657,166.103,458.985,144.505,446.361,126.157z"/>
	</g>
</g>
<g>
</g>
<g>
</g>
<g>
</g>
<g>
</g>
<g>
</g>
<g>
</g>
<g>
</g>
<g>
</g>
<g>
</g>
<g>
</g>
<g>
</g>
<g>
</g>
<g>
</g>
<g>
</g>
<g>
</g>
</svg>
